<?xml version="1.0" encoding="iso-8859-1"?>
<!-- Uploaded to: SVG Repo, www.svgrepo.com, Generator: SVG Repo Mixer Tools -->
<svg height="800px" width="800px" version="1.1" id="Layer_1" xmlns="http://www.w3.org/2000/svg" xmlns:xlink="http://www.w3.org/1999/xlink" 
	 viewBox="0 0 512 512" xml:space="preserve">
<g>
	<path style="fill:#11BBA3;" d="M418.133,118.345v129.122l-102.4-76.8l89.133-59.422
		C410.538,107.463,418.133,111.53,418.133,118.345z"/>
	<path style="fill:#11BBA3;" d="M93.867,118.345v129.122l102.4-76.8l-89.133-59.422C101.462,107.463,93.867,111.53,93.867,118.345z"
		/>
</g>
<g>
	<path style="fill:#72CCC5;" d="M93.867,384v119.467c0,4.713,3.821,8.533,8.533,8.533h28.356c3.489,0,6.627-2.125,7.923-5.364
		l31.987-79.969L93.867,384z"/>
	<path style="fill:#72CCC5;" d="M418.133,384v119.467c0,4.713-3.821,8.533-8.533,8.533h-28.356c-3.489,0-6.627-2.125-7.923-5.364
		l-31.987-79.969L418.133,384z"/>
	<ellipse style="fill:#72CCC5;" cx="256" cy="307.2" rx="196.267" ry="170.667"/>
</g>
<path style="fill:#11BBA3;" d="M281.6,435.2c-108.395,0-196.267-76.411-196.267-170.667c0-19.895,3.929-38.99,11.124-56.743
	c-23.11,27.996-36.724,62.319-36.724,99.41c0,94.256,87.872,170.667,196.267,170.667c85.516,0,158.244-47.564,185.142-113.923
	C405.524,407.09,347.34,435.2,281.6,435.2z"/>
<circle style="fill:#198A82;" cx="349.867" cy="298.667" r="25.6"/>
<circle style="fill:#F4F3EC;" cx="349.867" cy="298.667" r="8.533"/>
<circle style="fill:#198A82;" cx="162.133" cy="298.667" r="25.6"/>
<circle style="fill:#F4F3EC;" cx="162.133" cy="298.667" r="8.533"/>
<ellipse style="fill:#11BBA3;" cx="256" cy="366.933" rx="68.267" ry="59.733"/>
<ellipse style="fill:#72CCC5;" cx="256" cy="366.933" rx="51.2" ry="42.667"/>
<g>
	<circle style="fill:#198A82;" cx="281.6" cy="366.933" r="8.533"/>
	<circle style="fill:#198A82;" cx="230.4" cy="366.933" r="8.533"/>
	<path style="fill:#198A82;" d="M298.667,213.333h-85.333c-4.713,0-8.533-3.821-8.533-8.533c0-4.713,3.821-8.533,8.533-8.533h85.333
		c4.713,0,8.533,3.821,8.533,8.533C307.2,209.513,303.379,213.333,298.667,213.333z"/>
</g>
<circle style="fill:#FFC552;" cx="256" cy="59.733" r="59.733"/>
<path style="fill:#FC9C47;" d="M273.067,102.4c-32.99,0-59.733-26.743-59.733-59.733c0-12.13,3.626-23.407,9.837-32.83
	c-16.204,10.684-26.903,29.036-26.903,49.897c0,32.99,26.743,59.733,59.733,59.733c20.861,0,39.213-10.7,49.897-26.903
	C296.474,98.774,285.196,102.4,273.067,102.4z"/>
<path style="fill:#F4F3EC;" d="M247.473,93.867c-2.595,0.001-5.156-1.178-6.833-3.413c-2.828-3.77-2.064-9.119,1.707-11.947
	L256,68.267h-17.067c-3.673,0-6.933-2.35-8.095-5.835c-1.162-3.486,0.037-7.322,2.976-9.526l34.133-25.6
	c3.771-2.828,9.119-2.063,11.947,1.708s2.064,9.119-1.707,11.947L264.533,51.2H281.6c3.673,0,6.933,2.35,8.095,5.835
	c1.162,3.486-0.037,7.322-2.976,9.526l-34.133,25.6C251.051,93.311,249.254,93.867,247.473,93.867z"/>
</svg>